<svg width="24" height="25" viewBox="0 0 24 25" fill="none" xmlns="http://www.w3.org/2000/svg">
<path d="M0 24.3823L11.2196 1.22947C11.2593 1.14783 11.3194 1.07781 11.394 1.02619C11.4687 0.974571 11.5554 0.943097 11.6458 0.934816C11.7362 0.926536 11.8272 0.941728 11.91 0.978924C11.9928 1.01612 12.0646 1.07406 12.1185 1.14714L22.9372 15.8152C25.5573 19.3665 23.0244 24.3901 18.6105 24.396C17.7456 24.3973 16.8931 24.1901 16.1253 23.792C15.3575 23.3939 14.6969 22.8167 14.1995 22.1092L12.3204 19.4341C12.0113 18.9963 11.5491 18.6904 11.0252 18.5769C10.5014 18.4635 9.95405 18.5508 9.49147 18.8215L0 24.3823Z" fill="url(#paint0_linear_6060_7057)"/>
<defs>
<linearGradient id="paint0_linear_6060_7057" x1="16.2766" y1="12.4177" x2="10.8618" y2="14.3399" gradientUnits="userSpaceOnUse">
<stop stop-color="#FF1101"/>
<stop offset="1" stop-color="#990A00"/>
</linearGradient>
</defs>
</svg>
