<svg width="24" height="24" viewBox="0 0 24 24" fill="none" xmlns="http://www.w3.org/2000/svg">
<g clip-path="url(#clip0_3400_17853)">
<g clip-path="url(#clip1_3400_17853)">
<path d="M19.6448 0.80964C19.6448 1.34474 19.6448 1.85184 19.6448 2.35962C19.6448 2.71879 19.7911 2.90404 20.0678 2.89938C20.3354 2.89471 20.4762 2.71479 20.4769 2.37095C20.4776 1.77121 20.4769 1.17148 20.4769 0.571746C20.4769 0.115282 20.3555 0 19.875 0C14.4488 0 9.02253 0 3.59629 0C3.11926 0 3 0.115948 3 0.576411C3 6.85695 3 13.1375 3 19.4187C3 19.8778 3.12064 19.9938 3.59768 19.9938C5.7471 19.9938 7.89721 19.9938 10.0466 19.9938C10.1333 19.9938 10.2234 20.0018 10.3053 19.9825C10.514 19.9325 10.6388 19.7965 10.6353 19.5886C10.6318 19.3814 10.5049 19.2481 10.2942 19.2041C10.211 19.1868 10.1215 19.1948 10.0348 19.1948C8.06708 19.1948 6.09932 19.1948 4.13157 19.1948H3.84798V0.80964H19.6448ZM23 18.4152C22.9681 18.1006 22.9584 17.7821 22.9002 17.4729C22.3066 14.323 19.3273 12.3339 16.0484 12.8996C15.2004 13.0455 14.4294 13.3787 13.7346 13.8685C13.5058 14.0298 13.4621 14.263 13.6098 14.4542C13.7478 14.6328 13.9856 14.6588 14.2116 14.5189C14.263 14.4876 14.3108 14.4516 14.3607 14.4189C15.1179 13.9271 15.9541 13.6466 16.8638 13.6046C19.9977 13.458 22.4522 15.9822 22.0986 18.9749C21.7811 21.6617 19.1019 23.5922 16.3313 23.1304C12.6918 22.5233 10.9709 18.5711 13.0683 15.6391C13.2631 15.3672 13.2486 15.1233 13.0288 14.9833C12.8055 14.8414 12.5795 14.91 12.3798 15.1932C11.4923 16.448 11.1518 17.8241 11.4167 19.3241C11.9208 22.1808 14.6325 24.2266 17.5779 23.9813C20.6564 23.7255 22.9716 21.3399 22.9993 18.4158L23 18.4152ZM7.99913 2.79942C8.12186 2.79942 8.22309 2.79942 8.32501 2.79942C10.8114 2.79942 13.2985 2.79942 15.7849 2.79942C16.117 2.79942 16.3063 2.65615 16.3132 2.4096C16.3202 2.15904 16.1281 2.00111 15.805 2.00111C13.0933 1.99978 10.3808 1.99978 7.66909 2.00111C7.31063 2.00111 7.16363 2.14371 7.16086 2.48556C7.15809 2.93536 7.15947 3.3845 7.16086 3.8343C7.16086 4.2781 7.28497 4.39938 7.74259 4.39938C10.4023 4.39938 13.0627 4.39938 15.7225 4.39938C15.8001 4.39938 15.8806 4.40671 15.9555 4.39205C16.178 4.34873 16.3125 4.21479 16.3091 3.99423C16.3056 3.77366 16.169 3.64238 15.9444 3.60573C15.8598 3.59174 15.7717 3.6004 15.685 3.6004C13.2243 3.6004 10.7636 3.6004 8.30283 3.6004C8.20298 3.6004 8.10314 3.6004 7.99844 3.6004V2.80076L7.99913 2.79942ZM10.6984 10.3967C12.0941 10.3967 13.4899 10.3967 14.8856 10.3967C14.9633 10.3967 15.0437 10.404 15.1193 10.3907C15.3425 10.3501 15.4784 10.2175 15.4784 9.99689C15.4784 9.77632 15.3425 9.64371 15.1186 9.60373C15.043 9.59041 14.9633 9.59774 14.8849 9.59774C12.0934 9.59774 9.30265 9.59774 6.51118 9.59774C6.43352 9.59774 6.35309 9.59041 6.27752 9.60373C6.05356 9.64371 5.91836 9.77632 5.91836 9.99756C5.91836 10.2188 6.05426 10.3507 6.27821 10.3907C6.35379 10.404 6.43352 10.3967 6.51187 10.3967C7.90761 10.3967 9.30335 10.3967 10.6991 10.3967H10.6984ZM10.2831 7.59729C9.026 7.59729 7.76894 7.59729 6.51257 7.59729C6.4259 7.59729 6.33645 7.58863 6.25325 7.60729C6.04385 7.65393 5.91836 7.78521 5.91766 7.99511C5.91697 8.20502 6.04247 8.33696 6.25117 8.38561C6.33368 8.40493 6.42382 8.39627 6.50979 8.39627C9.02392 8.39627 11.5374 8.39627 14.0515 8.39627C14.1291 8.39627 14.2096 8.4036 14.2851 8.39027C14.5084 8.35029 14.645 8.21835 14.6457 7.99778C14.6457 7.77721 14.5112 7.64394 14.2872 7.60329C14.2116 7.58996 14.1319 7.59729 14.0536 7.59729C12.7965 7.59729 11.5394 7.59729 10.2831 7.59729ZM10.0764 11.5962C8.88871 11.5962 7.70099 11.5962 6.51395 11.5962C6.4363 11.5962 6.35587 11.5889 6.28029 11.6022C6.05634 11.6408 5.91974 11.7721 5.91836 11.9933C5.91628 12.2146 6.05148 12.3472 6.27474 12.3892C6.35032 12.4032 6.43006 12.3958 6.50841 12.3958C8.88386 12.3958 11.2586 12.3958 13.6341 12.3958C13.7034 12.3958 13.7734 12.3998 13.8421 12.3925C14.0723 12.3692 14.2318 12.2066 14.2338 11.9987C14.2352 11.7908 14.0771 11.6242 13.8483 11.6002C13.7714 11.5922 13.6923 11.5968 13.6147 11.5968C12.4359 11.5968 11.2565 11.5968 10.0778 11.5968L10.0764 11.5962ZM11.5332 5.59818C10.6575 5.59818 9.78246 5.59685 8.90674 5.59885C8.60929 5.59951 8.42971 5.73812 8.41238 5.96935C8.39296 6.21924 8.58849 6.39582 8.9005 6.39649C9.81921 6.39916 10.7379 6.39782 11.6573 6.39782C12.4893 6.39782 13.3214 6.39916 14.1534 6.39716C14.4502 6.39649 14.6304 6.25655 14.6485 6.02599C14.6679 5.7761 14.4724 5.60018 14.1596 5.59951C13.2839 5.59685 12.4089 5.59885 11.5332 5.59885V5.59818ZM8.64396 13.596C7.90692 13.596 7.17057 13.5946 6.43352 13.596C6.10487 13.5966 5.91558 13.7452 5.91489 13.9944C5.91489 14.2437 6.10487 14.3943 6.43283 14.3943C7.88889 14.3956 9.34564 14.3956 10.8017 14.3943C11.129 14.3943 11.3203 14.2437 11.3203 13.9951C11.3203 13.7459 11.1304 13.5966 10.8024 13.5953C10.0827 13.594 9.36367 13.5953 8.64396 13.5953V13.596ZM17.1577 19.592C16.4061 19.6113 15.7426 19.8538 15.183 20.3496C14.9695 20.5382 14.932 20.7588 15.0922 20.9354C15.2517 21.1113 15.4992 21.1133 15.7169 20.9414C16.6613 20.193 17.6466 20.201 18.6055 20.9654C18.8287 21.1433 19.0881 21.1393 19.2517 20.954C19.4056 20.7801 19.3751 20.5482 19.1643 20.359C18.602 19.8525 17.9294 19.6086 17.1577 19.5926V19.592ZM8.17525 16.3954C8.77362 16.3954 9.37129 16.3967 9.96966 16.3954C10.2969 16.3947 10.4883 16.2441 10.4876 15.9956C10.4876 15.7463 10.2969 15.5971 9.96897 15.5964C8.79026 15.5951 7.61154 15.5951 6.43214 15.5964C6.10418 15.5964 5.9142 15.7463 5.9142 15.9956C5.9142 16.2448 6.10418 16.3941 6.43283 16.3947C7.01387 16.3967 7.59421 16.3947 8.17525 16.3947V16.3954ZM14.6741 15.9876C14.4287 15.9922 14.2838 16.0835 14.2311 16.2754C14.1728 16.4887 14.2574 16.6499 14.4626 16.7486C14.9868 17.0018 15.5117 17.255 16.038 17.5056C16.3326 17.6455 16.5649 17.5949 16.6821 17.3716C16.8 17.1484 16.7022 16.9378 16.4075 16.7945C15.9069 16.5513 15.4049 16.3101 14.9022 16.0715C14.819 16.0315 14.7275 16.0069 14.6741 15.9869V15.9876ZM20.056 16.4847C20.0615 16.1122 19.7578 15.9116 19.4736 16.0409C18.9099 16.2961 18.3538 16.5666 17.7998 16.8419C17.5744 16.9538 17.5086 17.173 17.6119 17.3703C17.7159 17.5689 17.9371 17.6508 18.1624 17.5469C18.7157 17.2903 19.2683 17.0304 19.8098 16.7512C19.9305 16.6893 20.0047 16.5427 20.056 16.4847ZM20.472 12.1666C20.472 12.1666 20.4741 12.1666 20.4755 12.1666C20.4755 12.0753 20.481 11.984 20.4741 11.8934C20.4568 11.6562 20.2917 11.4989 20.065 11.4969C19.8376 11.4942 19.6615 11.6502 19.6483 11.8847C19.6379 12.0746 19.6323 12.2666 19.6518 12.4551C19.6739 12.6704 19.8119 12.799 20.0428 12.8123C20.2619 12.8256 20.4422 12.679 20.4699 12.4638C20.4824 12.3658 20.472 12.2659 20.472 12.1666ZM15.4805 17.9987C15.4826 17.7821 15.2968 17.5995 15.0707 17.5968C14.8447 17.5949 14.6554 17.7728 14.6526 17.9907C14.6499 18.2072 14.8364 18.3905 15.0624 18.3925C15.2871 18.3952 15.4784 18.2146 15.4805 17.9987ZM19.2316 17.5968C19.0055 17.5949 18.8163 17.7734 18.8142 17.9907C18.8121 18.2072 18.9979 18.3905 19.224 18.3925C19.4486 18.3945 19.64 18.2146 19.6421 17.998C19.6441 17.7814 19.4576 17.5988 19.2316 17.5968Z" fill="white"/>
<path d="M19.6448 0.80964H3.84867V19.1941H4.13226C6.10002 19.1941 8.06778 19.1941 10.0355 19.1941C10.1222 19.1941 10.2116 19.1861 10.2949 19.2035C10.5056 19.2474 10.6325 19.3807 10.636 19.588C10.6395 19.7959 10.5146 19.9318 10.3059 19.9818C10.2241 20.0018 10.1333 19.9931 10.0473 19.9931C7.8979 19.9931 5.74779 19.9931 3.59837 19.9931C3.12134 19.9931 3.00069 19.8772 3.00069 19.418C3 13.1375 3 6.85695 3 0.576411C3 0.115948 3.11926 0 3.59629 0C9.02253 0 14.4488 0 19.875 0C20.3555 0 20.4769 0.115282 20.4769 0.57108C20.4769 1.17081 20.4776 1.77055 20.4769 2.37028C20.4769 2.71413 20.3354 2.89405 20.0678 2.89871C19.7911 2.90338 19.6455 2.71813 19.6448 2.35895C19.6441 1.85118 19.6448 1.34407 19.6448 0.808974V0.80964Z" fill="white"/>
<path d="M23.0002 18.4151C22.9725 21.3392 20.6573 23.7241 17.5788 23.9807C14.6341 24.2259 11.9217 22.1801 11.4176 19.3234C11.1528 17.8234 11.4932 16.4467 12.3807 15.1926C12.5811 14.9094 12.8071 14.8407 13.0297 14.9827C13.2488 15.1226 13.2633 15.3665 13.0692 15.6384C10.9718 18.5704 12.6927 22.5226 16.3322 23.1297C19.1028 23.5922 21.7827 21.661 22.0995 18.9742C22.4532 15.9816 19.998 13.4573 16.8647 13.6039C15.955 13.6466 15.1181 13.9271 14.3616 14.4182C14.3117 14.4509 14.2632 14.4869 14.2126 14.5182C13.9865 14.6581 13.7487 14.6322 13.6107 14.4536C13.463 14.2623 13.5074 14.0291 13.7355 13.8678C14.4303 13.378 15.2013 13.0455 16.0493 12.8989C19.3282 12.3332 22.3075 14.3223 22.9011 17.4722C22.9593 17.7821 22.969 18.1006 23.0009 18.4145L23.0002 18.4151Z" fill="white"/>
<path d="M15.4841 7.19347C15.4799 5.23034 17.1537 3.60773 19.1922 3.59973C21.2737 3.59173 22.9668 5.19302 22.9724 7.17614C22.9786 9.17259 21.3062 10.7925 19.2373 10.7952C17.1648 10.7979 15.4883 9.18925 15.4834 7.19347H15.4841ZM19.2282 9.99622C20.816 10.0002 22.132 8.74944 22.1411 7.22945C22.1501 5.66082 20.8452 4.39938 19.2158 4.39938C17.6307 4.39938 16.321 5.65548 16.3161 7.17881C16.3113 8.73545 17.6106 9.99222 19.2282 9.99622Z" fill="white"/>
<path d="M7.99915 2.79942V3.59907C8.10454 3.59907 8.20369 3.59907 8.30353 3.59907C10.7643 3.59907 13.225 3.59907 15.6858 3.59907C15.7724 3.59907 15.8605 3.59107 15.9451 3.6044C16.1697 3.64105 16.3063 3.77232 16.3098 3.99289C16.3132 4.21413 16.1787 4.34807 15.9562 4.39072C15.8813 4.40538 15.8008 4.39805 15.7232 4.39805C13.0635 4.39805 10.403 4.39805 7.7433 4.39805C7.28568 4.39805 7.16157 4.27743 7.16157 3.83296C7.16157 3.38316 7.15949 2.93403 7.16157 2.48423C7.16365 2.14238 7.31133 1.99978 7.6698 1.99978C10.3815 1.99845 13.094 1.99845 15.8057 1.99978C16.1288 1.99978 16.3202 2.15837 16.3139 2.40826C16.307 2.65549 16.1177 2.79809 15.7856 2.79809C13.2992 2.79876 10.8121 2.79809 8.32572 2.79809C8.2238 2.79809 8.12187 2.79809 7.99984 2.79809L7.99915 2.79942Z" fill="white"/>
<path d="M10.6982 10.3967C9.30247 10.3967 7.90673 10.3967 6.511 10.3967C6.43334 10.3967 6.35291 10.4041 6.27733 10.3907C6.05407 10.3501 5.91817 10.2188 5.91748 9.99757C5.91748 9.77633 6.05269 9.64372 6.27664 9.60374C6.35222 9.59041 6.43195 9.59774 6.5103 9.59774C9.30178 9.59774 12.0926 9.59774 14.884 9.59774C14.9617 9.59774 15.0421 9.59041 15.1177 9.60374C15.3416 9.64372 15.4775 9.77633 15.4775 9.9969C15.4775 10.2181 15.3416 10.3501 15.1184 10.3907C15.0428 10.4047 14.9631 10.3967 14.8847 10.3967C13.489 10.3967 12.0932 10.3967 10.6975 10.3967H10.6982Z" fill="white"/>
<path d="M10.2829 7.59796C11.5399 7.59796 12.797 7.59796 14.0534 7.59796C14.131 7.59796 14.2115 7.59063 14.287 7.60396C14.511 7.6446 14.6462 7.77788 14.6455 7.99845C14.6455 8.21968 14.5082 8.35096 14.285 8.39094C14.2094 8.40427 14.1297 8.39694 14.0513 8.39694C11.5372 8.39694 9.02374 8.39694 6.50961 8.39694C6.42294 8.39694 6.33281 8.4056 6.25099 8.38627C6.04298 8.33763 5.91679 8.20635 5.91748 7.99578C5.91818 7.78587 6.04367 7.6546 6.25307 7.60795C6.33558 7.5893 6.42572 7.59796 6.51239 7.59796C7.76945 7.59796 9.02651 7.59796 10.2829 7.59796Z" fill="white"/>
<path d="M10.077 11.5962C11.2557 11.5962 12.4351 11.5962 13.6138 11.5962C13.6915 11.5962 13.7705 11.5915 13.8475 11.5995C14.0763 11.6235 14.2351 11.7901 14.233 11.998C14.2316 12.2059 14.0721 12.3685 13.8412 12.3918C13.7726 12.3985 13.7026 12.3952 13.6332 12.3952C11.2578 12.3952 8.88301 12.3952 6.50755 12.3952C6.4299 12.3952 6.34947 12.4025 6.27389 12.3885C6.05063 12.3465 5.91542 12.2139 5.9175 11.9927C5.91958 11.7714 6.05548 11.6402 6.27944 11.6015C6.35501 11.5882 6.43475 11.5955 6.5131 11.5955C7.70083 11.5955 8.88856 11.5955 10.0756 11.5955L10.077 11.5962Z" fill="white"/>
<path d="M11.5333 5.59818C12.409 5.59818 13.284 5.59618 14.1597 5.59884C14.4724 5.59951 14.668 5.77543 14.6485 6.02532C14.6305 6.25589 14.4502 6.39582 14.1535 6.39649C13.3215 6.39849 12.4894 6.39716 11.6574 6.39716C10.7387 6.39716 9.81998 6.39849 8.90058 6.39582C8.58857 6.39516 8.39304 6.21857 8.41246 5.96868C8.43048 5.73745 8.60937 5.59884 8.90682 5.59818C9.78254 5.59618 10.6576 5.59751 11.5333 5.59751V5.59818Z" fill="white"/>
<path d="M8.64411 13.596C9.36382 13.596 10.0828 13.5946 10.8025 13.596C11.1305 13.5966 11.3205 13.7459 11.3205 13.9958C11.3205 14.2443 11.1291 14.3949 10.8018 14.3949C9.34579 14.3963 7.88904 14.3963 6.43298 14.3949C6.10502 14.3949 5.91504 14.2443 5.91504 13.9951C5.91504 13.7452 6.10502 13.5973 6.43367 13.5966C7.17072 13.5953 7.90707 13.5966 8.64411 13.5966V13.596Z" fill="white"/>
<path d="M17.1575 19.5913C17.9292 19.6073 18.6018 19.8512 19.1641 20.3576C19.3742 20.5469 19.4047 20.7788 19.2515 20.9527C19.0885 21.1373 18.8292 21.1419 18.6053 20.964C17.6464 20.1997 16.6611 20.1917 15.7167 20.94C15.4997 21.112 15.2515 21.11 15.092 20.934C14.9318 20.7575 14.9693 20.5369 15.1828 20.3483C15.7424 19.8525 16.4052 19.6106 17.1575 19.5906V19.5913Z" fill="white"/>
<path d="M8.17511 16.3947C7.59408 16.3947 7.01373 16.396 6.4327 16.3947C6.10474 16.3934 5.91476 16.2448 5.91406 15.9956C5.91406 15.7457 6.10335 15.5964 6.432 15.5964C7.61072 15.5951 8.78943 15.5951 9.96884 15.5964C10.2968 15.5964 10.4875 15.7463 10.4875 15.9956C10.4875 16.2441 10.2968 16.3947 9.96953 16.3954C9.37116 16.3974 8.77348 16.3954 8.17511 16.3954V16.3947Z" fill="white"/>
<path d="M14.6747 15.9869C14.728 16.0062 14.8189 16.0316 14.9028 16.0715C15.4055 16.3108 15.9075 16.5513 16.4081 16.7945C16.702 16.9372 16.8005 17.1484 16.6826 17.3716C16.5648 17.5949 16.3325 17.6455 16.0385 17.5056C15.5122 17.255 14.9881 17.0018 14.4632 16.7486C14.2579 16.6493 14.1741 16.488 14.2316 16.2754C14.2836 16.0829 14.4285 15.9922 14.6747 15.9876V15.9869Z" fill="white"/>
<path d="M20.0568 16.484C20.0055 16.542 19.9313 16.6886 19.8106 16.7505C19.2691 17.0298 18.7172 17.2896 18.1632 17.5462C17.9379 17.6501 17.7167 17.5682 17.6127 17.3696C17.5094 17.1724 17.5745 16.9531 17.8006 16.8412C18.3539 16.566 18.9106 16.2954 19.4743 16.0402C19.7586 15.9109 20.063 16.1115 20.0568 16.484Z" fill="white"/>
<path d="M20.4728 12.1659C20.4728 12.2652 20.4832 12.3658 20.4707 12.4631C20.443 12.6784 20.262 12.8243 20.0436 12.8116C19.8127 12.7976 19.6748 12.6697 19.6526 12.4545C19.6332 12.2659 19.6387 12.074 19.6491 11.884C19.6623 11.6495 19.8384 11.4936 20.0658 11.4962C20.2932 11.4989 20.4576 11.6555 20.4749 11.8927C20.4818 11.9833 20.4763 12.0746 20.4763 12.1659C20.4749 12.1659 20.4742 12.1659 20.4728 12.1659Z" fill="white"/>
<path d="M15.4812 17.998C15.4791 18.2146 15.2878 18.3945 15.0631 18.3918C14.8371 18.3892 14.6513 18.2066 14.6533 17.99C14.6561 17.7721 14.8454 17.5942 15.0714 17.5962C15.2975 17.5982 15.484 17.7814 15.4812 17.998Z" fill="white"/>
<path d="M19.2324 17.5962C19.4584 17.5982 19.6449 17.7808 19.6428 17.9973C19.6408 18.2139 19.4494 18.3938 19.2247 18.3918C18.9987 18.3898 18.8129 18.2066 18.815 17.99C18.817 17.7728 19.0063 17.5942 19.2324 17.5962Z" fill="white"/>
<path d="M18.6625 7.19614C18.3657 6.91959 18.0967 6.67437 17.8339 6.42315C17.5954 6.19525 17.5704 5.97268 17.7528 5.7901C17.9421 5.60085 18.182 5.62484 18.4309 5.86273C18.6881 6.10929 18.9412 6.35984 19.2241 6.63639C19.4397 6.42848 19.6443 6.23123 19.8495 6.03332C19.9292 5.95669 20.0055 5.87739 20.0887 5.80476C20.2912 5.6275 20.52 5.61884 20.6926 5.7781C20.8722 5.94336 20.8715 6.17859 20.6718 6.37584C20.4007 6.64438 20.1185 6.90227 19.7954 7.20747C20.0256 7.41671 20.2426 7.61329 20.459 7.81186C20.5401 7.8865 20.6226 7.96113 20.6961 8.04243C20.8625 8.22635 20.8639 8.44625 20.7051 8.60418C20.5401 8.76811 20.2926 8.7761 20.1019 8.59951C19.8155 8.3343 19.5423 8.05576 19.2199 7.7399C18.9876 7.97446 18.7706 8.19569 18.5515 8.4156C18.4794 8.48756 18.4087 8.56153 18.3283 8.62417C18.1473 8.76477 17.9164 8.75811 17.7618 8.61417C17.5968 8.46091 17.5801 8.22768 17.7521 8.05442C18.0329 7.77255 18.331 7.506 18.6611 7.19547L18.6625 7.19614Z" fill="white"/>
</g>
</g>
<defs>
<clipPath id="clip0_3400_17853">
<rect width="24" height="24" fill="white"/>
</clipPath>
<clipPath id="clip1_3400_17853">
<rect width="20" height="24" fill="white" transform="translate(3)"/>
</clipPath>
</defs>
</svg>
