<svg width="34" height="33" viewBox="0 0 34 33" fill="none" xmlns="http://www.w3.org/2000/svg">
<path fill-rule="evenodd" clip-rule="evenodd" d="M2.5 5.25C2.5 3.73122 3.73122 2.5 5.25 2.5C6.76878 2.5 8 3.73122 8 5.25C8 6.76878 6.76878 8 5.25 8C3.73122 8 2.5 6.76878 2.5 5.25ZM5.25 0C2.35051 0 0 2.35051 0 5.25C0 7.71878 1.70404 9.78956 4.0001 10.3503V22.1934C3.90371 23.3521 4.26418 24.9431 5.54483 26.2499C6.86643 27.5985 9.0213 28.5 12.2501 28.5H17.2321L14.75 30.75C14.2618 31.2382 14.2618 32.0296 14.75 32.5178C15.2382 33.0059 16.0296 33.0059 16.5178 32.5178L21.1338 28.1339C21.6219 27.6457 21.6219 26.8543 21.1338 26.3661L16.5178 22.1934C16.0296 21.7052 15.2382 21.7052 14.75 22.1934C14.2618 22.6815 14.2618 23.473 14.75 23.9611L17.2321 26H12.2501C9.4789 26 8.05044 25.2349 7.33036 24.5001C6.5945 23.7492 6.44362 22.8771 6.49389 22.3744C6.49803 22.333 6.5001 22.2915 6.5001 22.25V10.3503C8.79605 9.78944 10.5 7.71871 10.5 5.25C10.5 2.35051 8.1495 0 5.25 0Z" fill="black"/>
<path fill-rule="evenodd" clip-rule="evenodd" d="M31.25 27.6338C31.25 29.1526 30.0188 30.3838 28.5 30.3838C26.9812 30.3838 25.75 29.1526 25.75 27.6338C25.75 26.115 26.9812 24.8838 28.5 24.8838C30.0188 24.8838 31.25 26.115 31.25 27.6338ZM28.5 32.8838C31.3995 32.8838 33.75 30.5333 33.75 27.6338C33.75 25.165 32.046 23.0942 29.7499 22.5335L29.7499 10.6904C29.8463 9.53165 29.4858 7.94066 28.2052 6.63388C26.8836 5.28531 24.7287 4.38379 21.4999 4.38379L16.5179 4.38379L19 2.13379C19.4882 1.64563 19.4882 0.854178 19 0.366019C18.5118 -0.122133 17.7204 -0.122133 17.2322 0.366019L12.6162 4.7499C12.1281 5.23806 12.1281 6.02952 12.6162 6.51767L17.2322 10.6904C17.7204 11.1786 18.5118 11.1786 19 10.6904C19.4882 10.2023 19.4882 9.4108 19 8.92264L16.5179 6.88379L21.4999 6.88379C24.2711 6.88379 25.6996 7.64893 26.4196 8.3837C27.1555 9.13459 27.3064 10.0067 27.2561 10.5094C27.252 10.5507 27.2499 10.5923 27.2499 10.6338L27.2499 22.5335C24.9539 23.0944 23.25 25.1651 23.25 27.6338C23.25 30.5333 25.6005 32.8838 28.5 32.8838Z" fill="black"/>
</svg>
