<svg width="41" height="41" viewBox="0 0 41 41" fill="none" xmlns="http://www.w3.org/2000/svg">
<path d="M20.7031 8.50537L22.8939 15.2481L29.9837 15.2482L24.248 19.4154L26.4388 26.1582L20.7031 21.9909L14.9673 26.1582L17.1582 19.4154L11.4224 15.2482L18.5122 15.2481L20.7031 8.50537Z" stroke="black" stroke-width="2.5" stroke-linejoin="round"/>
<path d="M24.7692 34.5275H34.4066C37.168 34.5275 39.4066 32.2889 39.4066 29.5275V7C39.4066 4.23858 37.168 2 34.4066 2H7C4.23858 2 2 4.23858 2 7V29.5275C2 32.2889 4.23858 34.5275 7 34.5275H16.6374" stroke="black" stroke-width="2.5"/>
<path d="M16.6372 34.5273L20.7031 38.9999L24.7691 34.5273" stroke="black" stroke-width="2.5" stroke-linecap="round" stroke-linejoin="round"/>
</svg>
