<svg width="30" height="30" viewBox="0 0 30 30" fill="none" xmlns="http://www.w3.org/2000/svg">
<path fill-rule="evenodd" clip-rule="evenodd" d="M1.04297 24.811H25.7973V26.3035H1.04297V24.811ZM12.8558 15.5576C12.8361 14.3639 12.1028 13.3408 11.0615 12.9032C8.10982 11.6009 4.84727 10.878 1.41419 10.878L1.13955 10.8795C1.08371 11.127 1.05353 11.3805 1.05353 11.6371L1.04448 17.5887L12.8603 17.5842L12.8558 15.5576ZM13.986 15.5576C14.0057 14.3639 14.7391 13.3408 15.7803 12.9032C18.732 11.6009 21.996 10.878 25.4276 10.878L25.7023 10.8795C25.7581 11.127 25.7883 11.3805 25.7883 11.6371L25.7973 17.5887L13.9815 17.5842L13.986 15.5576ZM13.4141 10.6517C10.3553 9.12904 6.96748 8.1708 3.38501 7.91124C2.60785 8.46506 1.9997 9.08377 1.60132 9.74926C5.87946 9.78095 9.90106 10.8841 13.4141 12.8051C16.9257 10.8856 20.9608 9.78095 25.239 9.74926C24.8391 9.08226 24.2309 8.46355 23.4538 7.91124C19.8728 8.1708 16.4729 9.12904 13.4141 10.6517ZM13.4262 9.38558C16.0097 8.16476 18.8089 7.32423 21.7516 6.93942C19.5544 5.90573 16.6299 5.25684 13.4201 5.25684C10.2089 5.25684 7.28588 5.90573 5.08872 6.93942C8.03135 7.32423 10.8442 8.16476 13.4262 9.38558Z" fill="#3DAE2B"/>
<path d="M10.1312 19.353C10.1312 18.8475 11.0623 19.1206 11.0623 18.8897C11.0623 18.8248 11.0185 18.8037 10.8963 18.8037C10.4647 18.8037 9.83244 18.8173 9.02359 18.8173H7.99291L6.23186 21.7871L4.44666 18.8173H3.39485C2.586 18.8173 1.95522 18.8037 1.52213 18.8037C1.3999 18.8037 1.35613 18.8248 1.35613 18.8897C1.35613 19.1206 2.28571 18.8475 2.28571 19.353V22.5341C2.28571 23.7111 1 23.3927 1 23.6387C1 23.7036 1.07696 23.7322 1.20976 23.7322C1.65342 23.7322 2.06388 23.7187 2.46226 23.7187C2.86065 23.7187 3.27111 23.7322 3.71477 23.7322C3.84757 23.7322 3.92453 23.7036 3.92453 23.6387C3.92453 23.3927 2.63882 23.7111 2.63882 22.5341V19.5839H2.66146L5.1544 23.6674C5.1876 23.7111 5.2208 23.776 5.32039 23.776C5.39735 23.776 5.41999 23.7322 5.46375 23.6674L7.8903 19.5401H7.91293V23.183C7.91293 23.6885 6.98185 23.4138 6.98185 23.6447C6.98185 23.7096 7.02561 23.7307 7.14785 23.7307C7.58094 23.7307 8.21172 23.7172 9.02057 23.7172C9.82942 23.7172 10.4602 23.7307 10.8933 23.7307C11.0155 23.7307 11.0593 23.7081 11.0593 23.6447C11.0593 23.4138 10.1282 23.687 10.1282 23.183V19.353" fill="#0055B8"/>
<path d="M18.1964 22.019C18.1964 21.9541 18.1632 21.9104 18.0741 21.9104C17.8644 21.9104 17.9519 22.1488 17.5641 22.5608C16.9318 23.2248 15.9796 23.6594 15.2145 23.6594C14.1174 23.6594 13.4972 23.095 13.4972 21.2675C13.4972 19.9743 13.9288 18.8757 15.2145 18.8757C16.0565 18.8757 16.8216 19.3601 17.3528 19.9245C17.9851 20.596 17.8629 20.8208 18.0726 20.8208C18.1722 20.8208 18.1722 20.771 18.1722 20.6911V18.9632C18.1722 18.8485 18.0938 18.8183 18.0168 18.8183C17.7618 18.8183 17.9383 19.1503 17.5505 19.1503C17.0193 19.1503 16.3101 18.7021 15.0696 18.7021C12.9645 18.7021 11.0586 19.6996 11.0586 21.2675C11.0586 22.8354 12.7653 23.8344 15.1134 23.8344C16.3101 23.8344 17.1853 23.4511 17.6516 23.4511C17.9625 23.4511 17.8614 23.7197 18.0726 23.7197C18.1496 23.7197 18.1949 23.6775 18.1949 23.5824V22.019" fill="#0055B8"/>
<path fill-rule="evenodd" clip-rule="evenodd" d="M22.1771 21.1765C23.3074 21.1765 23.5624 21.4723 23.5624 22.3551C23.5624 23.4748 23.241 23.5473 22.2329 23.5473C21.7893 23.5473 21.6776 23.4673 21.6776 23.2862V21.1765H22.1771ZM19.4623 23.1821C19.4623 23.6876 18.5312 23.413 18.5312 23.6438C18.5312 23.7087 18.575 23.7299 18.6972 23.7299C19.1303 23.7299 19.7611 23.7163 20.57 23.7163C21.3683 23.7163 22.1424 23.7299 22.9527 23.7299C25.002 23.7299 25.9995 23.2379 25.9995 22.2766C25.9995 21.3365 24.4693 21.1268 23.0403 21.1132V21.0845C24.7576 21.0845 25.6449 20.6499 25.6449 19.9784C25.6449 19.3355 24.9462 18.7998 22.7868 18.7998C22.0654 18.7998 21.3562 18.8134 20.57 18.8134C19.7611 18.8134 19.1303 18.7998 18.6972 18.7998C18.575 18.7998 18.5312 18.8209 18.5312 18.8858C18.5312 19.1167 19.4623 18.8436 19.4623 19.3491V23.1821ZM21.6791 18.9643H22.3325C23.1308 18.9643 23.2968 19.1152 23.2968 19.9391C23.2968 20.8928 23.0071 21.0015 22.1997 21.0015H21.6791V18.9643Z" fill="#0055B8"/>
</svg>
