<svg width="28" height="18" viewBox="0 0 28 18" fill="none" xmlns="http://www.w3.org/2000/svg">
<g clip-path="url(#clip0_6060_7094)">
<path fill-rule="evenodd" clip-rule="evenodd" d="M19.5442 7.18968C19.8685 6.88649 20.073 6.47755 20.073 6.01925C20.073 5.10264 19.2692 4.3623 18.275 4.3623H13.3817C13.135 4.3623 12.9305 4.55973 12.9305 4.80651V9.5658C12.9305 9.77028 13.0645 9.93949 13.2407 10.01H18.275C19.2692 10.01 20.073 9.26967 20.073 8.35306C20.073 7.90181 19.8755 7.48581 19.5442 7.18968ZM18.275 9.1216H13.974V7.59863H18.275C18.832 7.59863 19.1775 8.00052 19.1775 8.36011C19.1775 8.71971 18.832 9.1216 18.275 9.1216ZM18.275 6.78073H13.974V5.25071H18.275C18.832 5.25071 19.1775 5.6526 19.1775 6.01219C19.1775 6.37884 18.832 6.78073 18.275 6.78073ZM27.9699 9.50234V9.62926C27.9699 9.83373 27.7654 10.003 27.5186 10.003H22.9849C22.1177 10.003 21.4126 9.30492 21.4126 8.43767V4.80651C21.4126 4.55973 21.61 4.3623 21.8639 4.3623H22.019C22.2658 4.3623 22.4702 4.55973 22.4702 4.80651V8.2332C22.4702 8.72676 22.8721 9.12865 23.3657 9.12865H27.5186C27.7724 9.12865 27.9699 9.29787 27.9699 9.50234ZM10.9845 4.3623H11.1396C11.3864 4.3623 11.5908 4.55973 11.5908 4.80651V8.44472C11.5908 9.31197 10.8858 10.01 10.0185 10.01H6.04184C5.17459 10.01 4.47656 9.31197 4.47656 8.44472V4.80651C4.47656 4.55973 4.67399 4.3623 4.92781 4.3623H5.07588C5.32266 4.3623 5.52713 4.55973 5.52713 4.80651V8.2332C5.52713 8.72676 5.92903 9.12865 6.42259 9.12865H9.63776C10.1313 9.12865 10.5332 8.72676 10.5332 8.2332V4.80651C10.5332 4.55973 10.7377 4.3623 10.9845 4.3623Z" fill="#0075BF"/>
<path d="M15.2691 16.2775L15.4876 16.2987C15.4312 16.4609 15.3537 16.5737 15.255 16.6512C15.1562 16.7288 15.0434 16.764 14.9165 16.764C14.7755 16.764 14.6697 16.7217 14.5781 16.6301C14.4935 16.5384 14.4512 16.4185 14.4512 16.2564C14.4512 16.1154 14.4794 15.9814 14.5358 15.8474C14.5922 15.7135 14.6697 15.6147 14.7685 15.5442C14.8742 15.4737 14.987 15.4385 15.121 15.4385C15.255 15.4385 15.3678 15.4737 15.4453 15.5513C15.5229 15.6289 15.5652 15.7276 15.5652 15.8545L15.3537 15.8686C15.3537 15.791 15.3325 15.7276 15.2832 15.6782C15.2409 15.6359 15.1774 15.6077 15.0998 15.6077C15.0152 15.6077 14.9377 15.6359 14.8742 15.6923C14.8108 15.7487 14.7614 15.8333 14.7262 15.9461C14.6909 16.059 14.6697 16.1647 14.6697 16.2705C14.6697 16.3762 14.6909 16.4609 14.7403 16.5173C14.7896 16.5737 14.846 16.6019 14.9165 16.6019C14.987 16.6019 15.0505 16.5737 15.1139 16.5243C15.1774 16.4679 15.2268 16.3833 15.2691 16.2775Z" fill="#0075BF"/>
<path fill-rule="evenodd" clip-rule="evenodd" d="M15.6367 16.2564C15.6367 16.0096 15.7072 15.8051 15.8553 15.643C15.9752 15.509 16.1303 15.4385 16.3277 15.4385C16.4828 15.4385 16.6027 15.4878 16.6944 15.5795C16.786 15.6782 16.8354 15.8051 16.8354 15.9673C16.8354 16.1154 16.8072 16.2493 16.7437 16.3762C16.6873 16.5032 16.6027 16.5948 16.4899 16.6653C16.3841 16.7358 16.2643 16.764 16.1444 16.764C16.0457 16.764 15.954 16.7429 15.8765 16.7006C15.7989 16.6583 15.7354 16.6019 15.6931 16.5243C15.6579 16.4467 15.6367 16.3551 15.6367 16.2564ZM15.8553 16.2352C15.8553 16.3551 15.8835 16.4467 15.9399 16.5102C15.9963 16.5737 16.0668 16.6019 16.1585 16.6019C16.2078 16.6019 16.2502 16.5948 16.2995 16.5737C16.3418 16.5525 16.3841 16.5243 16.4264 16.4891C16.4687 16.4538 16.4969 16.4044 16.5251 16.3621C16.5533 16.3128 16.5745 16.2564 16.5956 16.2C16.6168 16.1224 16.6309 16.0449 16.6309 15.9743C16.6309 15.8615 16.6027 15.7699 16.5463 15.7064C16.4899 15.643 16.4194 15.6077 16.3277 15.6077C16.2572 15.6077 16.2008 15.6218 16.1444 15.6571C16.088 15.6923 16.0386 15.7346 15.9893 15.7981C15.947 15.8615 15.9117 15.932 15.8906 16.0166C15.8694 16.0942 15.8553 16.1718 15.8553 16.2352Z" fill="#0075BF"/>
<path d="M16.9453 16.7356L17.2132 15.4665H17.4318L17.3895 15.678C17.4671 15.5863 17.5446 15.5229 17.6081 15.4947C17.6715 15.4594 17.7421 15.4453 17.8126 15.4453C17.8901 15.4453 17.9606 15.4665 18.01 15.5088C18.0664 15.5511 18.1016 15.6075 18.1157 15.685C18.1792 15.6075 18.2497 15.544 18.3202 15.5088C18.3907 15.4665 18.4683 15.4524 18.5458 15.4524C18.6516 15.4524 18.7292 15.4806 18.7856 15.5299C18.842 15.5793 18.8631 15.6498 18.8631 15.7414C18.8631 15.7838 18.8561 15.8472 18.8349 15.9389L18.6657 16.7568H18.4471L18.6234 15.9177C18.6375 15.8472 18.6446 15.7979 18.6446 15.7697C18.6446 15.7273 18.6305 15.6921 18.6022 15.6709C18.574 15.6498 18.5388 15.6357 18.4894 15.6357C18.426 15.6357 18.3625 15.6568 18.292 15.6921C18.2215 15.7344 18.1722 15.7838 18.1369 15.8472C18.1016 15.9107 18.0664 16.0094 18.0382 16.1363L17.9113 16.7497H17.6927L17.869 15.8895C17.8831 15.8331 17.8901 15.7908 17.8901 15.7626C17.8901 15.7203 17.876 15.685 17.8478 15.6639C17.8196 15.6357 17.7914 15.6286 17.7491 15.6286C17.6856 15.6286 17.6222 15.6498 17.5517 15.685C17.4882 15.7273 17.4318 15.7767 17.3895 15.8472C17.3472 15.9177 17.312 16.0164 17.2838 16.1433L17.1568 16.7427H16.9453V16.7356Z" fill="#0075BF"/>
<path fill-rule="evenodd" clip-rule="evenodd" d="M19.9099 16.3057L20.1214 16.3269C20.0932 16.4326 20.0227 16.5314 19.9099 16.623C19.8041 16.7147 19.6702 16.764 19.5221 16.764C19.4304 16.764 19.3388 16.7429 19.2612 16.7006C19.1837 16.6583 19.1202 16.5948 19.0849 16.5102C19.0426 16.4256 19.0215 16.3339 19.0215 16.2282C19.0215 16.0872 19.0567 15.9532 19.1202 15.8263C19.1837 15.6923 19.2683 15.6006 19.367 15.5372C19.4657 15.4737 19.5785 15.4385 19.6984 15.4385C19.8464 15.4385 19.9733 15.4878 20.058 15.5795C20.1496 15.6712 20.1919 15.8051 20.1919 15.9673C20.1919 16.0307 20.1849 16.0942 20.1778 16.1577H19.2401C19.2401 16.1859 19.233 16.207 19.233 16.2211C19.233 16.341 19.2612 16.4326 19.3176 16.4961C19.374 16.5596 19.4375 16.5878 19.5221 16.5878C19.5997 16.5878 19.6702 16.5666 19.7407 16.5173C19.8112 16.4679 19.8676 16.3974 19.9099 16.3057ZM19.2824 15.9884H19.9945V15.9391C19.9945 15.8333 19.9663 15.7487 19.9099 15.6923C19.8535 15.6359 19.783 15.6077 19.6984 15.6077C19.6067 15.6077 19.5221 15.643 19.4445 15.7064C19.374 15.7699 19.3176 15.8615 19.2824 15.9884Z" fill="#0075BF"/>
<path d="M21.8424 15.1775L21.7789 15.4878H21.4828L21.2219 16.7428H20.7988L21.0597 15.4878H20.827L20.8905 15.1775H21.1232L21.1584 15.0154C21.1866 14.8814 21.2148 14.7968 21.236 14.7474C21.2712 14.684 21.3206 14.6346 21.3841 14.5994C21.4475 14.5641 21.5392 14.543 21.6449 14.543C21.7719 14.543 21.9129 14.5641 22.0539 14.6135L21.9693 14.9167C21.8706 14.8814 21.786 14.8673 21.7225 14.8673C21.6731 14.8673 21.6379 14.8814 21.6167 14.9096C21.6026 14.9308 21.5815 14.9801 21.5674 15.0647L21.5462 15.1775H21.8424Z" fill="#0075BF"/>
<path fill-rule="evenodd" clip-rule="evenodd" d="M22.1856 14.585H22.6087L22.5311 14.9657H22.1081L22.1856 14.585ZM22.0587 15.1772H22.4818L22.1574 16.7425H21.7344L22.0587 15.1772Z" fill="#0075BF"/>
<path d="M22.8587 15.1775H23.2536L23.1901 15.4807C23.3382 15.255 23.4933 15.1422 23.6696 15.1422C23.733 15.1422 23.7965 15.1563 23.867 15.1845L23.7048 15.53C23.6696 15.5159 23.6273 15.5089 23.585 15.5089C23.5145 15.5089 23.4369 15.5371 23.3593 15.5935C23.2818 15.6499 23.2254 15.7204 23.1831 15.812C23.1408 15.9037 23.0985 16.0518 23.0562 16.2492L22.9504 16.7357H22.5273L22.8587 15.1775ZM23.6555 16.2986L24.0644 16.2351C24.0997 16.3197 24.149 16.3832 24.1984 16.4184C24.2548 16.4537 24.3253 16.4748 24.417 16.4748C24.5157 16.4748 24.5932 16.4537 24.6497 16.4114C24.692 16.3832 24.7131 16.3479 24.7131 16.3056C24.7131 16.2774 24.7061 16.2492 24.6849 16.228C24.6638 16.2069 24.6074 16.1787 24.5086 16.1505C24.2548 16.0659 24.0926 16.0024 24.0362 15.9531C23.9446 15.8755 23.8952 15.7768 23.8952 15.6499C23.8952 15.523 23.9446 15.4172 24.0362 15.3326C24.1631 15.2057 24.3535 15.1493 24.6073 15.1422C24.8118 15.1422 24.9599 15.1775 25.0657 15.255C25.1714 15.3255 25.2349 15.4313 25.2631 15.5512L24.8753 15.6217C24.8541 15.5653 24.8189 15.523 24.7766 15.4948C24.7131 15.4595 24.6356 15.4383 24.5509 15.4383C24.4593 15.4383 24.3958 15.4525 24.3606 15.4807C24.3253 15.5089 24.3042 15.5441 24.3042 15.5794C24.3042 15.6217 24.3253 15.6499 24.3606 15.6781C24.3888 15.6922 24.4663 15.7204 24.6003 15.7627C24.8048 15.8191 24.9458 15.8826 25.0163 15.939C25.115 16.0236 25.1644 16.1152 25.1644 16.2351C25.1644 16.3832 25.1009 16.5101 24.981 16.6229C24.8541 16.7287 24.6779 16.7851 24.4522 16.7851C24.2266 16.7851 24.0503 16.7428 23.9305 16.6582C23.7824 16.5665 23.6978 16.4537 23.6555 16.2986ZM25.4746 15.4877L25.5381 15.1775H25.7425L25.7919 14.9307L26.2784 14.6416L26.1656 15.1845H26.4194L26.356 15.4948H26.0951L25.9611 16.1505C25.94 16.2704 25.9259 16.3338 25.9259 16.355C25.9259 16.3902 25.9329 16.4114 25.9541 16.4325C25.9752 16.4537 26.0105 16.4607 26.0669 16.4607C26.088 16.4607 26.1303 16.4607 26.2079 16.4537L26.1444 16.7639C26.0739 16.778 25.9964 16.7851 25.9188 16.7851C25.7707 16.7851 25.6579 16.7569 25.5945 16.7005C25.524 16.6441 25.4958 16.5594 25.4958 16.4607C25.4958 16.4114 25.5169 16.3056 25.5522 16.1293L25.6861 15.5018H25.4746V15.4877Z" fill="#0075BF"/>
<path d="M8.73854 15.1768H9.16158L9.26735 15.9523C9.29555 16.1498 9.30965 16.2908 9.30965 16.3754C9.36606 16.2132 9.43656 16.044 9.53528 15.8677L9.90897 15.1768H10.3532L9.39426 16.8901C9.3167 17.0311 9.25324 17.1298 9.20389 17.1862C9.16158 17.2426 9.10518 17.2849 9.04172 17.3202C8.97826 17.3554 8.9007 17.3695 8.80904 17.3695C8.71738 17.3695 8.61867 17.3554 8.50586 17.3202L8.54111 17.0029C8.59047 17.017 8.63982 17.0241 8.68918 17.0241C8.81609 17.0241 8.92186 16.9253 9.00647 16.7279L8.73854 15.1768Z" fill="#0075BF"/>
<path fill-rule="evenodd" clip-rule="evenodd" d="M10.3262 16.0866C10.3262 15.7975 10.4108 15.5649 10.5729 15.3956C10.7351 15.2264 10.9537 15.1348 11.2146 15.1348C11.4472 15.1348 11.6235 15.1982 11.7575 15.3251C11.8844 15.4521 11.9549 15.6213 11.9549 15.8398C11.9549 16.0937 11.8773 16.3123 11.7152 16.4956C11.553 16.6789 11.3344 16.7706 11.0665 16.7706C10.9184 16.7706 10.7915 16.7424 10.6787 16.6789C10.5659 16.6225 10.4813 16.5379 10.4249 16.4321C10.3544 16.3264 10.3262 16.2135 10.3262 16.0866ZM11.5318 15.7905C11.5318 15.6918 11.5036 15.6072 11.4402 15.5508C11.3838 15.4873 11.3062 15.4591 11.2146 15.4591C11.1229 15.4591 11.0453 15.4873 10.9748 15.5437C10.9043 15.6001 10.8479 15.6847 10.8127 15.7905C10.7704 15.8963 10.7563 15.995 10.7563 16.0866C10.7563 16.1994 10.7845 16.284 10.8479 16.3546C10.9114 16.418 10.9819 16.4533 11.0806 16.4533C11.1934 16.4533 11.2921 16.4039 11.3697 16.3052C11.4754 16.1571 11.5318 15.9879 11.5318 15.7905Z" fill="#0075BF"/>
<path d="M12.4155 15.177H12.8386L12.6482 16.1006C12.627 16.2134 12.6129 16.2769 12.6129 16.3051C12.6129 16.3474 12.627 16.3897 12.6623 16.4179C12.6975 16.4532 12.7398 16.4673 12.7892 16.4673C12.8245 16.4673 12.8597 16.4602 12.902 16.4461C12.9373 16.432 12.9725 16.4109 13.0148 16.3827C13.0501 16.3545 13.0853 16.3192 13.1206 16.284C13.1488 16.2487 13.177 16.1993 13.2052 16.1359C13.2264 16.0936 13.2405 16.016 13.2687 15.9173L13.4238 15.1699H13.8468L13.5225 16.7352H13.1135L13.1558 16.5237C12.9866 16.6858 12.7963 16.7705 12.5918 16.7705C12.4649 16.7705 12.3591 16.7352 12.2886 16.6576C12.2181 16.5871 12.1758 16.4884 12.1758 16.3615C12.1758 16.3051 12.1899 16.1993 12.2251 16.0372L12.4155 15.177Z" fill="#0075BF"/>
<path d="M1.67889 16.7361L1.54492 15.467H1.75645L1.81285 16.0381L1.83401 16.3554C1.83401 16.3765 1.84106 16.4259 1.84106 16.5034C1.86221 16.4188 1.88336 16.3624 1.90451 16.3201C1.91862 16.2778 1.94682 16.2144 1.98207 16.1368L2.28526 15.474H2.51793L2.56024 16.1086C2.56729 16.2073 2.56729 16.3342 2.57434 16.4964C2.61665 16.3906 2.6801 16.2426 2.77176 16.0522L3.04675 15.474H3.26532L2.64485 16.7432H2.41922L2.36987 15.9958C2.36987 15.9464 2.36282 15.8618 2.36282 15.7279C2.32756 15.8125 2.29231 15.9041 2.25 16.0028L1.91156 16.7432H1.67889V16.7361ZM3.19481 16.7361L3.56146 14.9805H3.78003L3.63901 15.6573C3.71657 15.5798 3.79413 15.5234 3.86464 15.4881C3.93515 15.4529 4.00566 15.4388 4.07616 15.4388C4.18193 15.4388 4.26654 15.467 4.32294 15.5234C4.37935 15.5798 4.40755 15.6503 4.40755 15.742C4.40755 15.7843 4.39345 15.8689 4.3723 15.9887L4.21718 16.7361H3.99861L4.16077 15.9676C4.18193 15.8548 4.19603 15.7843 4.19603 15.7561C4.19603 15.7138 4.18193 15.6785 4.15372 15.6573C4.12552 15.6291 4.08322 15.615 4.02681 15.615C3.94925 15.615 3.87169 15.6362 3.80118 15.6785C3.73067 15.7208 3.67427 15.7772 3.63196 15.8477C3.58966 15.9182 3.5544 16.031 3.51915 16.1932L3.40634 16.7361H3.19481Z" fill="#0075BF"/>
<path fill-rule="evenodd" clip-rule="evenodd" d="M5.4841 16.3067L5.69563 16.3279C5.66742 16.4336 5.59692 16.5323 5.4841 16.624C5.37834 16.7157 5.24438 16.765 5.09631 16.765C5.00465 16.765 4.91299 16.7439 4.83543 16.7016C4.75787 16.6593 4.69441 16.5958 4.65916 16.5112C4.61686 16.4266 4.5957 16.3349 4.5957 16.2291C4.5957 16.0881 4.63096 15.9542 4.69441 15.8273C4.75787 15.6933 4.84248 15.6016 4.94119 15.5382C5.0399 15.4747 5.15272 15.4395 5.27258 15.4395C5.42065 15.4395 5.54756 15.4888 5.63217 15.5805C5.72383 15.6721 5.76613 15.8061 5.76613 15.9683C5.76613 16.0317 5.75908 16.0952 5.75203 16.1586H4.81428C4.81428 16.1868 4.80723 16.208 4.80723 16.2221C4.80723 16.342 4.83543 16.4336 4.89184 16.4971C4.94824 16.5605 5.0117 16.5887 5.09631 16.5887C5.17387 16.5887 5.24438 16.5676 5.31488 16.5182C5.38539 16.4689 5.4418 16.3984 5.4841 16.3067ZM4.84953 15.9894H5.56166V15.9401C5.56166 15.8343 5.53346 15.7497 5.47705 15.6933C5.42065 15.6369 5.35014 15.6087 5.26553 15.6087C5.17387 15.6087 5.08926 15.6439 5.0117 15.7074C4.94824 15.7708 4.89184 15.8625 4.84953 15.9894Z" fill="#0075BF"/>
<path d="M5.89062 16.7368L6.15855 15.4677H6.34893L6.29252 15.7285C6.35598 15.6298 6.41943 15.5593 6.48289 15.51C6.54635 15.4606 6.6098 15.4395 6.67326 15.4395C6.71557 15.4395 6.77197 15.4536 6.83543 15.4888L6.74377 15.6933C6.70851 15.6651 6.66621 15.651 6.62391 15.651C6.54635 15.651 6.46879 15.6933 6.39123 15.7779C6.31367 15.8625 6.25021 16.0176 6.20086 16.2362L6.0951 16.7439H5.89062V16.7368Z" fill="#0075BF"/>
<path fill-rule="evenodd" clip-rule="evenodd" d="M7.62083 16.3067L7.83235 16.3279C7.80415 16.4336 7.73364 16.5323 7.62083 16.624C7.51506 16.7157 7.3811 16.765 7.23303 16.765C7.14137 16.765 7.04971 16.7439 6.97215 16.7016C6.89459 16.6593 6.83113 16.5958 6.79588 16.5112C6.75357 16.4266 6.73242 16.3349 6.73242 16.2291C6.73242 16.0881 6.76768 15.9542 6.83113 15.8273C6.89459 15.6933 6.9792 15.6016 7.07791 15.5382C7.17662 15.4747 7.28944 15.4395 7.4093 15.4395C7.56442 15.4395 7.68428 15.4888 7.76889 15.5805C7.86056 15.6721 7.90286 15.8061 7.90286 15.9683C7.90286 16.0317 7.89581 16.0952 7.88876 16.1586H6.95805C6.95805 16.1868 6.951 16.208 6.951 16.2221C6.951 16.342 6.9792 16.4336 7.03561 16.4971C7.09201 16.5605 7.15547 16.5887 7.24008 16.5887C7.31764 16.5887 7.38815 16.5676 7.45866 16.5182C7.52917 16.4689 7.58557 16.3984 7.62083 16.3067ZM6.9933 15.9894H7.70544V15.9401C7.70544 15.8343 7.67723 15.7497 7.62083 15.6933C7.56442 15.6369 7.49391 15.6087 7.4093 15.6087C7.31764 15.6087 7.23303 15.6439 7.15547 15.7074C7.09201 15.7708 7.03561 15.8625 6.9933 15.9894Z" fill="#0075BF"/>
<path fill-rule="evenodd" clip-rule="evenodd" d="M17.1899 12.886C8.93338 12.886 2.24921 10.1997 2.24921 6.89284C2.24921 3.57896 8.94043 0.89965 17.1899 0.89965C19.1148 0.89965 21.1524 1.09002 22.8658 1.35795V1.41436C22.8658 1.83741 23.2113 2.1829 23.6343 2.1829C24.0574 2.1829 24.4029 1.83741 24.4029 1.41436C24.4029 0.99131 24.0574 0.645821 23.6343 0.645821C23.2465 0.645821 22.9293 0.934904 22.8728 1.30155C20.7647 0.878497 18.2193 0.603516 15.7374 0.603516C7.04376 0.603516 0 3.4591 0 6.97745C0 10.4958 7.04376 13.3514 15.7374 13.3514C20.2852 13.3514 24.3747 12.5687 27.2514 11.3208C24.5932 12.2938 21.0678 12.886 17.1899 12.886Z" fill="#0075BF"/>
</g>
<defs>
<clipPath id="clip0_6060_7094">
<rect width="27.9706" height="16.7712" fill="white" transform="translate(0 0.601562)"/>
</clipPath>
</defs>
</svg>
